<svg id="Layer_2" data-name="Layer 2" xmlns="http://www.w3.org/2000/svg" viewBox="0 0 92.21 139.11"><defs><style>.cls-1{fill:#fff;}.cls-2{fill:#8c1515;}</style></defs><title>safari-pinned-tab</title><path class="cls-1" d="M346.38,346.54l-18.5-17.8H277.43l-18.5,17.77v49.4l15.92,15.94h10.27a5.72,5.72,0,0,0-1.69,2.59c-.4,1.12-.81,1.44,2.79,1a12.82,12.82,0,0,0,4.2-1.53c1-.64,2.85-.12,2.68,1.27a6.68,6.68,0,0,1-5.34,3.74c-5,.62-2.84,2.45-2.84,2.45a6.2,6.2,0,0,1,1.23,1.05h-27.2v22.88l18.5,17.83h50.46l18.5-17.8V398l-15.93-15.92H317.59c-1-.67-2.41-1.42-3.67-2.23h0a9.55,9.55,0,0,1-1.41-1,8.2,8.2,0,0,1-1-.93,11.61,11.61,0,0,1-2.17-2.87c-.41-1-.32-2.28.62-1.75,2.38,1.35,6.29,1.6,7.74,1.65a11.86,11.86,0,0,1,1.61.21c.29.11.74.33.74.33.58.25,1.65-.55.42-2a11.49,11.49,0,0,0-1.37-1.67h27.3Zm-47.55,84.81v1.15h0v8.85c0,3.46-.29,6.64-1.69,8s-3.41,2.88-4.6,4.72c-1.57,2.42-3.49,6.34-8.66,6.59h-5.49L261.3,444.25v-19.5H286.2a2.89,2.89,0,0,1-.74.51s-3.85,1.52-4.88,4.13a33.37,33.37,0,0,0-1.45,4.34h0c-.53,2.33.77,3.31,1.7,2.12,1.49-1.91,6.69-4.56,8.49-4.73s4.94,0,6.8-2,2.71-1.91,2.71-1.19v3.11C298.83,431.2,298.83,431.3,298.83,431.35ZM309.54,396c1.79.47,2.71,1.72,5.78.89a3.82,3.82,0,0,1,2,.15c.78.4,2.81-.15-1-2.82-2.77-1.94-5.28-1.78-6.65-4.81,0,0-.5-.91-.26-1.36h0a1.49,1.49,0,0,1,1.79-.62c.95.34,4.43,1.83,5.88,2.18a5.39,5.39,0,0,1,1.83.77c.65.39,2.65,1.11,2.64-.38a13.87,13.87,0,0,0-1.6-5.46h9.46L344,399v45.25l-17.08,16.44h-4.8c-2.5,0-6.26-1.51-7.41-2.89-2.5-3-3.84-2.65-5.61-4.42-2.16-2.16-2.66-4.7-2.77-7.36v-11.9s-.19-2.41,1.72-.92,3,1.32,6.2,1.07,6.75,2.64,8.6,3.78,5.62,4,1.73-5.9c-.75-1.91-3-3.23-4.16-3.8-.71-.38-1.76-1.68-.79-2.77,0,0,1.93-1.71.88-2.87-.34-.42-1.21-.83-3.11-1.06a6.68,6.68,0,0,1-5.35-3.74c-.17-1.39,1.73-1.91,2.68-1.27a12.87,12.87,0,0,0,4.2,1.53c3.6.49,3.19.17,2.79-1a6,6,0,0,0-3.15-3.58c-4.95-2.59-5.53-1.89-6.39-3.59-.24-.49-.48-3.44.71-2.56l0,0a6.77,6.77,0,0,0,.81.77,5.29,5.29,0,0,0,4,1c1.73,0,1.93.67,2.63,1s1.63.9.77-1.71a9.69,9.69,0,0,0-5.36-6.27,33.72,33.72,0,0,1-5.9-3.92C309.21,397.68,307.75,395.5,309.54,396ZM344,369.47l-27.57,0a18.62,18.62,0,0,0-5.37-3c-3.36-1-3-2-2.81-2.24a5.78,5.78,0,0,1,1.46-.44,7.65,7.65,0,0,1,2.63.17c2.41.42,3.44-.77,1.51-2.18-1-.76-1.69-1-4.62-2.27-1.92-.85-1.65-3-.91-3.07,1.16-.12,4.29.86,2.09-1.6a11.78,11.78,0,0,0-2.94-2.15c-1.23-.47,0-1.21.44-1.44s2-.66-.18-2.32c0,0-3.84-2.33-2.33-3.43s2.15-2,.71-2.11c-1-.07-2-.44-1.75-1.47.06-.36.93-1,1.23-1.32s.05-.65-.16-.7a1.81,1.81,0,0,0-.41,0c-.76,0-1.2-.44-1.59-1.46-.47-1.87-.79-3.54-.79-3.54h-.07c-.33,0-.35.21-.57,1.21-.75,3.3-1.12,4.56-2.41,4.56a2.17,2.17,0,0,0-.41,0c-.21.06-.54.23-.15.7.53.66,1.78,1.25,1.8,1.72s-.32.79-.82,1.25a16.17,16.17,0,0,1-1.77,1.35,7.61,7.61,0,0,0-1.84,1.5c-.35.8,1.44.76,1.44.76,3.18.12,1.85,1.29,1.33,1.47a12.91,12.91,0,0,0-2.34.95,15.47,15.47,0,0,0-2.1,1.7c-2.2,2.47.92,1.49,2.09,1.61.75.08,1,2.23-.91,3.07l-2.68,1.18a6.36,6.36,0,0,0-2.12,1.78c-.73,1.05,1.48.71,3,.83,1,.08,2.15-.73,2.86-.66.89.09,1.16.28,1.3.84s-.29,1.22-1,1.76a2.11,2.11,0,0,1-.76.55l-.05,0a16.47,16.47,0,0,1-2.35,1.18c-3,1.62-7.51,4.33-9.36,6.41-1.38,1.55-.25,2.4.35,2.13a4.72,4.72,0,0,1,3.23-.55,10.69,10.69,0,0,0,4.32-.52h0c1.17-.25,2.31-2.21,2.77-1.46,1.1,1.81-.79,3.93-1.55,4.66-1.47,2-5.55,3.74-7.19,5.07-1.91,1.54-2.69,3.56-3.21,7.53s1.55,1.13,1.55,1.13a5.51,5.51,0,0,1,4.74-2,6.65,6.65,0,0,0,4.69-1.48c1.94-1.1.93,1.48.93,1.48-1.29,2.87-3.6,2.89-6.18,4.51a9.31,9.31,0,0,0-.93.87c-1.09,1.07-.74,1.51-.15,1.42s1.53.28,2.52.25a7.8,7.8,0,0,0,3-.74c1.15-.5,1.74-1.44,2.47-1,.49.31.4,1.11.28,1.61a5,5,0,0,1-1.18,2.09,33.54,33.54,0,0,1-5.9,3.93l-.54.26-.17.11a11.13,11.13,0,0,0-3,2.54c-.31.45-1.92,3,.28,1.92s5.15.78,6.61.05c.86-.42.56,1.31.53,1.47a4.26,4.26,0,0,1-.2,1.36c-.65,1.28-1.14,1.2-3.48,2.2H275.83L261.3,394.93V347.52l17.08-16.41h48.55L344,347.55Z" transform="translate(-256.55 -326.36)"/><path class="cls-2" d="M309.86,398.42a33.72,33.72,0,0,0,5.9,3.92,9.69,9.69,0,0,1,5.36,6.27c.86,2.61-.08,2-.77,1.71s-.9-1-2.63-1a5.29,5.29,0,0,1-4-1,6.77,6.77,0,0,1-.81-.77l0,0c-1.19-.89-1,2.07-.71,2.56.86,1.7,1.44,1,6.39,3.59a6,6,0,0,1,3.15,3.58c.4,1.12.81,1.44-2.79,1a12.87,12.87,0,0,1-4.2-1.53c-.95-.64-2.85-.12-2.68,1.27a6.68,6.68,0,0,0,5.35,3.74c1.9.24,2.77.64,3.11,1.06,1,1.17-.88,2.87-.88,2.87-1,1.1.08,2.39.79,2.77,1.16.58,3.41,1.9,4.16,3.8,3.9,9.86.13,7-1.73,5.9s-5.38-4-8.6-3.78-4.29.42-6.2-1.07-1.72.92-1.72.92V446c.11,2.67.61,5.21,2.77,7.36,1.77,1.77,3.11,1.44,5.61,4.42,1.15,1.38,4.9,2.86,7.41,2.89h4.8L344,444.28V399l-14.53-14.53H320a13.87,13.87,0,0,1,1.6,5.46c0,1.49-2,.76-2.64.38a5.39,5.39,0,0,0-1.83-.77c-1.45-.35-4.93-1.84-5.88-2.18a1.49,1.49,0,0,0-1.79.62h0c-.24.45.26,1.36.26,1.36,1.37,3,3.88,2.88,6.65,4.81,3.8,2.66,1.76,3.22,1,2.82a3.82,3.82,0,0,0-2-.15c-3.07.83-4-.42-5.78-.89S309.21,397.68,309.86,398.42Z" transform="translate(-256.55 -326.36)"/><path class="cls-2" d="M292.53,454.1c1.18-1.83,3.27-3.39,4.6-4.72s1.65-4.58,1.69-8V432.5h0v-1.15s0-.15,0-.27V428c0-.72-.85-.77-2.71,1.19s-5,1.81-6.8,2-7,2.82-8.49,4.73c-.92,1.19-2.23.21-1.7-2.12h0a33.37,33.37,0,0,1,1.45-4.34c1-2.61,4.88-4.13,4.88-4.13a2.89,2.89,0,0,0,.74-.51H261.31v19.5l17.08,16.44h5.49C289,460.44,291,456.52,292.53,454.1Z" transform="translate(-256.55 -326.36)"/><path class="cls-2" d="M278.38,331.11,261.3,347.52v47.41l14.53,14.55h13.65c2.34-1,2.83-.92,3.48-2.2a4.26,4.26,0,0,0,.2-1.36c0-.16.32-1.89-.53-1.47-1.46.72-4.4-1.17-6.61-.05s-.59-1.47-.28-1.92a11.13,11.13,0,0,1,3-2.54l.17-.11.54-.26a33.54,33.54,0,0,0,5.9-3.93,5,5,0,0,0,1.18-2.09c.12-.5.22-1.3-.28-1.61-.74-.47-1.32.46-2.47,1a7.8,7.8,0,0,1-3,.74c-1,0-1.93-.33-2.52-.25s-.94-.35.15-1.42a9.31,9.31,0,0,1,.93-.87c2.58-1.62,4.89-1.64,6.18-4.51,0,0,1-2.58-.93-1.48a6.65,6.65,0,0,1-4.69,1.48,5.51,5.51,0,0,0-4.74,2s-2.06,2.84-1.55-1.13,1.3-6,3.21-7.53c1.64-1.33,5.72-3.11,7.19-5.07.76-.74,2.65-2.86,1.55-4.66-.46-.75-1.59,1.21-2.77,1.46h0a10.69,10.69,0,0,1-4.32.52,4.72,4.72,0,0,0-3.23.55c-.6.27-1.73-.58-.35-2.13,1.86-2.08,6.34-4.79,9.36-6.41a16.47,16.47,0,0,0,2.35-1.18l.05,0a2.11,2.11,0,0,0,.76-.55c.66-.54,1.11-1.15,1-1.76s-.42-.75-1.3-.84c-.71-.07-1.87.74-2.86.66-1.51-.12-3.72.22-3-.83a6.36,6.36,0,0,1,2.12-1.78l2.68-1.18c1.92-.85,1.65-3,.91-3.07-1.16-.12-4.29.86-2.09-1.61a15.47,15.47,0,0,1,2.1-1.7,12.91,12.91,0,0,1,2.34-.95c.52-.18,1.85-1.35-1.33-1.47,0,0-1.79,0-1.44-.76a7.61,7.61,0,0,1,1.84-1.5,16.17,16.17,0,0,0,1.77-1.35c.49-.46.84-.83.82-1.25s-1.27-1.06-1.8-1.72c-.38-.48-.06-.64.15-.7a2.17,2.17,0,0,1,.41,0c1.29,0,1.66-1.26,2.41-4.56.23-1,.24-1.2.57-1.21h.07s.32,1.68.79,3.54c.39,1,.83,1.47,1.59,1.46a1.81,1.81,0,0,1,.41,0c.21.06.54.22.16.7s-1.16,1-1.23,1.32c-.26,1,.74,1.4,1.75,1.47,1.44.1.84,1-.71,2.11s2.33,3.43,2.33,3.43c2.19,1.66.63,2.09.18,2.32s-1.67,1-.44,1.44a11.78,11.78,0,0,1,2.94,2.15c2.2,2.46-.93,1.48-2.09,1.6-.75.08-1,2.23.91,3.07,2.93,1.3,3.58,1.52,4.62,2.27,1.93,1.41.91,2.6-1.51,2.18a7.65,7.65,0,0,0-2.63-.17,5.78,5.78,0,0,0-1.46.44c-.17.25-.55,1.23,2.81,2.24a18.62,18.62,0,0,1,5.37,3l27.57,0V347.55l-17.08-16.44Z" transform="translate(-256.55 -326.36)"/><path class="cls-2" d="M348.76,345.53l-19.92-19.17H276.47L256.55,345.5v51.4l17.31,17.33h7.94a2.18,2.18,0,0,0,.1,2.12,2.34,2.34,0,0,0,2,.87,17.41,17.41,0,0,0,2.12-.19h0s.41.35-.85.76h0a3.25,3.25,0,0,0-2.26,2,2.15,2.15,0,0,0,0,.22H256.56v26.27l19.91,19.2h52.38l19.92-19.17V397.07l-17.32-17.31H316.73c-.65-.38-1.31-.77-1.92-1.17l-.22-.14h0a9.4,9.4,0,0,1-1.05-.77,6.34,6.34,0,0,1-.8-.74l-.06-.06a14.27,14.27,0,0,1-1-1.11,26.3,26.3,0,0,0,6,.85h.48a3.28,3.28,0,0,1,.65.11l.41.18.62.23a2.15,2.15,0,0,0,.46,0,2.36,2.36,0,0,0,2.13-1.37,2.6,2.6,0,0,0,.17-1.6h26.19Zm-2.37,26.32h-27.3a11.49,11.49,0,0,1,1.38,1.67c1.22,1.47.16,2.27-.42,2,0,0-.45-.21-.74-.33a11.86,11.86,0,0,0-1.61-.21c-1.45,0-5.36-.3-7.74-1.65-.93-.53-1,.75-.62,1.75A11.61,11.61,0,0,0,311.5,378a8.2,8.2,0,0,0,1,.93,9.55,9.55,0,0,0,1.41,1h0c1.26.81,2.64,1.56,3.67,2.23h12.86L346.38,398v47.24l-18.5,17.8H277.42l-18.5-17.83V422.38h27.2a6.2,6.2,0,0,0-1.23-1.05s-2.16-1.83,2.84-2.45a6.68,6.68,0,0,0,5.34-3.74c.17-1.4-1.73-1.92-2.68-1.27a12.82,12.82,0,0,1-4.2,1.53c-3.6.49-3.19.17-2.79-1a5.72,5.72,0,0,1,1.69-2.59H274.85l-15.92-15.94v-49.4l18.5-17.77h50.45l18.5,17.8Z" transform="translate(-256.55 -326.36)"/></svg>